<svg xmlns="http://www.w3.org/2000/svg" width="116.089" height="111.25" viewBox="0 0 116.089 111.25">
  <defs>
    <style>
      .cls-1 {
        fill: #fff;
        fill-rule: evenodd;
      }
    </style>
  </defs>
  <path id="step2" class="cls-1" d="M1101.75,964.437a0.643,0.643,0,0,0,.28.047,2.268,2.268,0,0,0,.49-0.07,6.02,6.02,0,0,0,.59-0.164c0.19-.063.36-0.125,0.51-0.188l0.19-.187a4.564,4.564,0,0,0,.47-0.7,4.311,4.311,0,0,0,.38-0.937c0.09-.343.16-0.656,0.21-0.937a2.721,2.721,0,0,1,.21-0.751c0-.124.01-0.257,0.02-0.4s0.04-.273.07-0.4,0.06-.227.07-0.3,0.04-.164.07-0.258h1.31v0.188a17.573,17.573,0,0,0-.32,1.758c-0.1.672-.19,1.429-0.28,2.273s-0.19,1.6-.29,2.273-0.18,1.258-.28,1.758h-16.08V967.25a22.083,22.083,0,0,1,.54-2.485,23.124,23.124,0,0,1,1.25-3.328,34.19,34.19,0,0,1,1.66-3.281c0.55-.938,1.02-1.718,1.43-2.344l0.19-.187c0.25-.375.58-0.851,0.98-1.43s0.9-1.249,1.48-2.016,1.1-1.453,1.57-2.062,0.87-1.148,1.22-1.617l0.18-.188a22.547,22.547,0,0,0,1.22-2.039,15.651,15.651,0,0,0,1.25-3.164,12.189,12.189,0,0,0,.53-3.187,9.941,9.941,0,0,0-.18-2.11l-0.19-.187a5.5,5.5,0,0,0-2.02-3.164,4.82,4.82,0,0,0-4.43-.8,5.488,5.488,0,0,0-3.82,2.6,5.59,5.59,0,0,0-.79,3.61l0.18,0.187a3.628,3.628,0,0,0,.5.4c0.2,0.14.44,0.3,0.72,0.468a5.97,5.97,0,0,1,.73.516,3.53,3.53,0,0,1,.49.492v0.188a2.12,2.12,0,0,1,.1.351,2.544,2.544,0,0,1,0,.68,3.825,3.825,0,0,1-.14.68,2.956,2.956,0,0,1-.15.351l-0.18.188a1.938,1.938,0,0,1-1.24.492,2.606,2.606,0,0,1-1.79-.68,3.468,3.468,0,0,1-1.24-1.617,2.67,2.67,0,0,1-.14-1.43,6.188,6.188,0,0,1,.12-2.859,7.78,7.78,0,0,1,2.11-3.586,8.092,8.092,0,0,1,3.4-2.32,6.628,6.628,0,0,1,2.71-.375,4.878,4.878,0,0,1,2.09-.047,7.26,7.26,0,0,1,3.24,1.547,8.055,8.055,0,0,1,2.55,2.976,7.575,7.575,0,0,1,.8,2.789,12.206,12.206,0,0,1,.09,1.618,9.721,9.721,0,0,1-.35,2.32,12.058,12.058,0,0,1-.89,2.414q-0.54,1.055-.96,1.758l-0.19.187c-0.66.844-1.57,1.915-2.74,3.211s-2.5,2.829-3.99,4.594a39.495,39.495,0,0,0-3.42,4.617,17.464,17.464,0,0,0-1.62,3.235,0.649,0.649,0,0,0-.11.187,1.708,1.708,0,0,0-.14.375c-0.05.157-.09,0.274-0.12,0.352a0.3,0.3,0,0,0,.14.3h9.75Zm-16.83-19.828a8.308,8.308,0,0,1-1.97,2.578,8.613,8.613,0,0,1-3.51,1.9,16.162,16.162,0,0,1-3.68.7,17.948,17.948,0,0,0-2.28.211h-0.51q-0.285,0-.66.023c-0.25.016-.47,0.04-0.65,0.07s-0.35.063-.47,0.094l-0.19.188v12.187c0,0.063-.01.141-0.02,0.235a1.024,1.024,0,0,0,0,.351,2.438,2.438,0,0,0,.07.4,0.874,0.874,0,0,0,.14.328l0.18,0.187,0.38,0.375h1.87v1.313H1065v-1.313h0.14a3.469,3.469,0,0,1,.35.023,4.225,4.225,0,0,0,.49.024,2.416,2.416,0,0,0,.57-0.07,3.918,3.918,0,0,0,.51-0.164l0.19-.188a3.51,3.51,0,0,0,.14-0.351,5.023,5.023,0,0,0,.23-1.313V935.351a2.194,2.194,0,0,0-.02-0.328,2.445,2.445,0,0,0-.07-0.4l-0.09-.375-0.19-.188-0.56-.562H1065v-1.313h10.12c0.38,0.032.91,0.087,1.6,0.164a12.9,12.9,0,0,1,2.51.61,8.337,8.337,0,0,1,2.5,1.289,10.926,10.926,0,0,1,1.64,1.5l0.19,0.187a11.84,11.84,0,0,1,1.17,1.9,6.993,6.993,0,0,1,.71,2.484,7.859,7.859,0,0,1-.1,2.461Q1085.115,943.86,1084.92,944.609Zm-3.04-4.875a1.237,1.237,0,0,1-.12-0.281c-0.05-.125-0.1-0.273-0.17-0.445a2.031,2.031,0,0,1-.11-0.4,0.358,0.358,0,0,1,.02-0.234l-0.19-.188a7.2,7.2,0,0,0-1.33-2.133,7.373,7.373,0,0,0-2.91-1.968,6.774,6.774,0,0,0-3.28-.61,6.214,6.214,0,0,0-2.09.539,4.211,4.211,0,0,0-.49.492,1.151,1.151,0,0,0-.26.54,1.093,1.093,0,0,0,0,.445,1.1,1.1,0,0,1,.05.258v12.937l0.19,0.188c0.37-.031.84-0.063,1.4-0.094s1.25-.086,2.04-0.164a13.549,13.549,0,0,0,2.3-.422,20.375,20.375,0,0,0,1.94-.633l0.19-.187a6.622,6.622,0,0,0,1.6-1.57,5.947,5.947,0,0,0,1.03-2.368,8.157,8.157,0,0,0,.21-2.273A7.764,7.764,0,0,1,1081.88,939.734Zm-21.26,21.375c-0.17.969-.34,1.844-0.5,2.625s-0.29,1.453-.42,2.016H1041v-1.313h1.87l0.19-.187,0.75-.75v-0.188a3.141,3.141,0,0,1,.05-0.422q0.045-.28.09-0.7a7.03,7.03,0,0,0,.05-0.7V935.539a3.113,3.113,0,0,0-.05-0.445c-0.03-.188-0.06-0.352-0.09-0.493a1.8,1.8,0,0,1-.05-0.351l-0.19-.188-0.75-.562h-1.68v-1.313h18.37v0.188c0,0.438.03,1,.1,1.687s0.13,1.516.21,2.485,0.14,1.812.18,2.531,0.07,1.3.07,1.734h-0.18a0.881,0.881,0,0,1-.82-0.281,3.317,3.317,0,0,1-.73-1.359q-0.33-.986-0.63-1.711a2.8,2.8,0,0,0-.64-1.008v-0.141l-0.18-.187a16.7,16.7,0,0,0-1.81-1.453,6.608,6.608,0,0,0-2.51-1.055,6.966,6.966,0,0,0-2.57-.117c-0.75.125-1.39,0.25-1.93,0.375l-0.18.187-0.57.75v12.563l0.19,0.187a6.033,6.033,0,0,1,1.06,0c0.39,0.032.86,0.063,1.4,0.094a5.178,5.178,0,0,0,1.57-.141A6.859,6.859,0,0,0,1053,947a5.644,5.644,0,0,0,.45-1.266,5.987,5.987,0,0,0,.14-1.383c-0.02-.452-0.04-0.843-0.07-1.172a2.437,2.437,0,0,1,.04-0.867h1.31v12.375h-1.31V954.5a5.061,5.061,0,0,1-.02-0.891c0.01-.343.02-0.75,0.02-1.219a8.6,8.6,0,0,0-.11-1.359c-0.08-.437-0.17-0.844-0.26-1.219l-0.19-.187a4.371,4.371,0,0,0-.98-0.563,2.919,2.919,0,0,0-1.22-.211q-0.66.024-1.08,0.071a1.636,1.636,0,0,1-.7-0.047h-1.46l-0.19.187v12.75a0.773,0.773,0,0,0-.04.3,1.865,1.865,0,0,0,.09.515c0.06,0.2.13,0.384,0.19,0.539s0.11,0.266.14,0.329l0.19,0.187a9.758,9.758,0,0,0,1.68.68,5.648,5.648,0,0,0,2.28.164,10.729,10.729,0,0,0,2.37-.516c0.71-.249,1.34-0.484,1.87-0.7,0.38-.343.8-0.773,1.27-1.289a10.612,10.612,0,0,0,1.29-1.828,14.927,14.927,0,0,0,.89-1.875c0.2-.546.38-1.008,0.53-1.383V956.75h1.32v0.187c-0.1.469-.21,1.04-0.35,1.711S1060.79,960.141,1060.62,961.109ZM1036.57,940.7a2.219,2.219,0,0,1-.8-1.1c-0.23-.563-0.43-1.047-0.58-1.454a3.8,3.8,0,0,0-.42-0.843,0.86,0.86,0,0,1-.12-0.141c-0.05-.062-0.11-0.156-0.19-0.281a1.427,1.427,0,0,1-.16-0.328,0.834,0.834,0,0,1-.05-0.235l-0.19-.187a3.885,3.885,0,0,0-.28-0.375,5.37,5.37,0,0,0-.56-0.586q-0.375-.351-0.63-0.563a3.857,3.857,0,0,1-.4-0.351H1032l-0.75-.188h-0.19l-1.12.375-0.19.188a2.16,2.16,0,0,0-.33.656,5.734,5.734,0,0,0-.21.984,5.661,5.661,0,0,0-.05.961c0.02,0.266.03,0.462,0.03,0.586v24.563a1.156,1.156,0,0,0-.05.351,3.1,3.1,0,0,0,.07.586,6.168,6.168,0,0,0,.16.657c0.07,0.187.13,0.344,0.19,0.468l0.19,0.188a3.4,3.4,0,0,0,.61.164,4.569,4.569,0,0,0,.84.07c0.32,0,.58-0.007.8-0.023s0.41-.024.56-0.024v1.313h-10.5v-1.313h0.14c0.16,0,.35.008,0.59,0.024s0.5,0.031.8,0.047a3.909,3.909,0,0,0,.86-0.047,4.386,4.386,0,0,0,.8-0.211l0.19-.188,0.37-.375V935.187l-0.19-.187-0.75-.75h-0.18l-0.75-.188h-0.19c-0.09.032-.19,0.063-0.28,0.094s-0.22.078-.38,0.141-0.3.125-.44,0.187a2.546,2.546,0,0,1-.4.141l-0.19.187a16.375,16.375,0,0,0-1.19,1.242,10.654,10.654,0,0,0-1.2,1.735,17.3,17.3,0,0,0-.87,1.781c-0.2.516-.36,0.93-0.49,1.242H1017v-0.187c0.03-.469.08-1.047,0.14-1.735s0.15-1.445.26-2.273,0.19-1.547.23-2.156,0.09-1.117.12-1.524h19.31v0.188c0,0.406.02,0.922,0.05,1.547s0.09,1.375.19,2.25,0.16,1.64.21,2.3,0.08,1.188.11,1.594h-0.18A1.031,1.031,0,0,1,1036.57,940.7Zm-31.7-8.181s1,0.176,1.44.306c0.91,0.266,1.67.492,2.3,0.68a1.386,1.386,0,0,0,.51,0,3.444,3.444,0,0,0,.83-0.258,3.406,3.406,0,0,0,.84-0.516c0.23-.2.43-0.382,0.58-0.539l0.19,0.188c0.1,0.5.25,1.148,0.47,1.945s0.49,1.727.82,2.789,0.6,1.962.82,2.695,0.39,1.321.52,1.758l-0.19.188a2.99,2.99,0,0,1-.38.094,1.247,1.247,0,0,1-.53-0.024,0.58,0.58,0,0,1-.43-0.328,1.423,1.423,0,0,1-.11-0.539,13.76,13.76,0,0,0-1.39-2.438,13.3,13.3,0,0,0-2.9-2.976,8.617,8.617,0,0,0-3.45-1.782C1002.96,936.454,1001,945,1001,945a7.177,7.177,0,0,0,1.14.711c0.88,0.547,1.87,1.109,2.98,1.687s2.08,1.094,2.93,1.547,1.57,0.867,2.2,1.242l0.19,0.188a11.657,11.657,0,0,1,1.94,1.617,7.659,7.659,0,0,1,1.71,2.719,6.367,6.367,0,0,1,.52,2.976,9.82,9.82,0,0,1-.42,2.11,8.984,8.984,0,0,1-1.92,3.187,8.813,8.813,0,0,1-4.11,2.461,10.158,10.158,0,0,1-4.54.516,11,11,0,0,1-2.79-.727c-0.25-.125-0.52-0.25-0.8-0.375a2.958,2.958,0,0,0-.936-0.234,2.857,2.857,0,0,0-.914.047c-0.266.063-.493,0.109-0.68,0.14l-0.188.188a0.28,0.28,0,0,0-.14.07c-0.063.047-.149,0.109-0.258,0.188a2.356,2.356,0,0,0-.3.257l-0.234.235-0.188-.188c-0.063-.219-0.148-0.5-0.257-0.844-0.082-.255-0.187-0.574-0.3-0.925l-4.145,15.337-0.966-.261,30-111,0.96,0.261-19.6,72.548Zm-8,27.517a16.934,16.934,0,0,0,4.263,3.68,7.528,7.528,0,0,0,4.99,1.1,7.437,7.437,0,0,0,3.52-1.547,6.91,6.91,0,0,0,1.06-1.289,5.05,5.05,0,0,0,.72-1.945,6.624,6.624,0,0,0,.1-1.875c-0.07-.5-0.11-0.906-0.15-1.219l-0.18-.187a7.906,7.906,0,0,0-1.5-2.227,12.513,12.513,0,0,0-2.96-2.3c-1.25-.734-2.32-1.312-3.23-1.734a13.352,13.352,0,0,1-2.02-1.1,16.656,16.656,0,0,1-1.716-.9L996.6,960.208A0.38,0.38,0,0,1,996.867,960.031Z" transform="translate(-990.531 -867.875)"/>
</svg>
