<svg xmlns="http://www.w3.org/2000/svg" width="111.407" height="111.25" viewBox="0 0 111.407 111.25">
  <defs>
    <style>
      .cls-1 {
        fill: #fff8f8;
        fill-rule: evenodd;
      }
    </style>
  </defs>
  <path id="step1" class="cls-1" d="M579.75,968H567v-1.313a4.238,4.238,0,0,1,.8-0.023q0.468,0.023,1.1.023t1.2-.047a9.23,9.23,0,0,0,1.031-.14l0.187-.188,0.563-.562V936.5l-0.188-.188a7.5,7.5,0,0,0-1.007-.14q-0.587-.047-1.266-0.047t-1.195.023a4.662,4.662,0,0,1-.844-0.023v-1.313h0.14a5.111,5.111,0,0,0,1.149.094,6.412,6.412,0,0,0,1.992-.422,5.6,5.6,0,0,0,2.039-1.2,7.148,7.148,0,0,0,1.242-1.477h1.125V965.75l0.188,0.187a3.634,3.634,0,0,0,.891.563,2.4,2.4,0,0,0,1.1.211c0.39-.017.727-0.04,1.008-0.071a1.66,1.66,0,0,1,.7.047h0.984V968H579.75Zm-16.828-23.391a8.476,8.476,0,0,1-1.969,2.578,8.638,8.638,0,0,1-3.516,1.9,16.077,16.077,0,0,1-3.679.7,17.906,17.906,0,0,0-2.274.211h-0.515q-0.282,0-.657.023c-0.25.016-.468,0.04-0.656,0.07s-0.344.064-.469,0.094l-0.187.187v12.188a1.444,1.444,0,0,1-.024.235,1.277,1.277,0,0,0,0,.351,2.952,2.952,0,0,0,.071.4,1.026,1.026,0,0,0,.14.328l0.188,0.187,0.375,0.375h1.875v1.313H543v-1.313h0.14a3.219,3.219,0,0,1,.352.024,4.442,4.442,0,0,0,.492.023,2.309,2.309,0,0,0,.563-0.07,3.95,3.95,0,0,0,.515-0.164l0.188-.188q0.046-.093.141-0.351a4.064,4.064,0,0,0,.164-0.657,4,4,0,0,0,.07-0.656V935.351a3.628,3.628,0,0,0-.094-0.726c-0.031-.125-0.063-0.25-0.094-0.375l-0.187-.188-0.563-.562H543v-1.313h10.125q0.563,0.048,1.594.164a12.751,12.751,0,0,1,2.507.61,8.409,8.409,0,0,1,2.508,1.289,11.456,11.456,0,0,1,1.641,1.5l0.187,0.187a12.521,12.521,0,0,1,1.172,1.9,6.948,6.948,0,0,1,.7,2.484,7.872,7.872,0,0,1-.093,2.461Q563.109,943.86,562.922,944.609Zm-3.047-4.875a2.907,2.907,0,0,1-.117-0.281q-0.071-.187-0.164-0.445a2.456,2.456,0,0,1-.118-0.4,0.369,0.369,0,0,1,.024-0.234l-0.188-.188a7.177,7.177,0,0,0-1.336-2.133,7.317,7.317,0,0,0-2.906-1.968,6.766,6.766,0,0,0-3.281-.61,6.166,6.166,0,0,0-2.086.539,3.747,3.747,0,0,0-.492.492,1.147,1.147,0,0,0-.258.54,1.026,1.026,0,0,0,0,.445,1.02,1.02,0,0,1,.047.258v12.937l0.187,0.188q0.563-.046,1.407-0.094t2.039-.164a13.478,13.478,0,0,0,2.3-.422q1.1-.3,1.945-0.633l0.187-.187a6.551,6.551,0,0,0,1.594-1.57,5.907,5.907,0,0,0,1.031-2.368,8.358,8.358,0,0,0,.211-2.273A8.961,8.961,0,0,1,559.875,939.734Zm-21.258,21.375q-0.258,1.453-.492,2.625T537.7,965.75H519v-1.313h1.875l0.187-.187,0.75-.75v-0.188a2.877,2.877,0,0,1,.047-0.422c0.031-.187.063-0.421,0.094-0.7a6.628,6.628,0,0,0,.047-0.7V935.539a2.9,2.9,0,0,0-.047-0.445c-0.031-.188-0.063-0.352-0.094-0.493a1.692,1.692,0,0,1-.047-0.351l-0.187-.188-0.75-.562h-1.688v-1.313h18.375v0.188q0,0.657.094,1.687t0.211,2.484q0.117,1.455.188,2.532t0.07,1.734h-0.188a0.881,0.881,0,0,1-.82-0.281,3.343,3.343,0,0,1-.726-1.359q-0.33-.986-0.633-1.711a2.74,2.74,0,0,0-.633-1.008v-0.141l-0.188-.187a17.294,17.294,0,0,0-1.8-1.453,6.632,6.632,0,0,0-2.508-1.055,7.015,7.015,0,0,0-2.578-.117q-1.125.188-1.922,0.375l-0.188.187-0.562.75v12.563l0.187,0.187a5.977,5.977,0,0,1,1.055,0q0.585,0.048,1.406.094a5.2,5.2,0,0,0,1.571-.141A6.8,6.8,0,0,0,531,947a5.794,5.794,0,0,0,.445-1.266,5.309,5.309,0,0,0,.141-1.383q-0.024-.678-0.071-1.172a2.572,2.572,0,0,1,.047-0.867h1.313v12.375h-1.313V954.5a5.336,5.336,0,0,1-.023-0.891q0.023-.515.023-1.219a7.73,7.73,0,0,0-.117-1.359q-0.117-.655-0.258-1.219L531,949.625a4.3,4.3,0,0,0-.985-0.563,2.877,2.877,0,0,0-1.218-.211q-0.657.024-1.078,0.071a1.657,1.657,0,0,1-.7-0.047h-1.454l-0.187.187v12.75a0.716,0.716,0,0,0-.047.3,1.782,1.782,0,0,0,.094.515c0.062,0.2.124,0.383,0.187,0.54s0.109,0.265.141,0.328l0.187,0.187a9.632,9.632,0,0,0,1.688.68,5.608,5.608,0,0,0,2.273.164,10.723,10.723,0,0,0,2.368-.516q1.077-.375,1.875-0.7,0.563-.514,1.265-1.289A9.743,9.743,0,0,0,536.7,960.2a14.02,14.02,0,0,0,.891-1.875q0.3-.819.539-1.383V956.75h1.312v0.187q-0.139.7-.351,1.711T538.617,961.109ZM514.57,940.7a2.205,2.205,0,0,1-.8-1.1q-0.351-.845-0.586-1.454a3.429,3.429,0,0,0-.422-0.843,1.351,1.351,0,0,1-.117-0.141c-0.047-.062-0.11-0.156-0.187-0.281a1.491,1.491,0,0,1-.164-0.329,0.741,0.741,0,0,1-.047-0.234l-0.188-.187c-0.063-.094-0.156-0.218-0.281-0.375a6.089,6.089,0,0,0-.562-0.586q-0.376-.351-0.633-0.563c-0.172-.14-0.305-0.258-0.4-0.351H510l-0.75-.188h-0.188l-1.125.375-0.187.188a2.116,2.116,0,0,0-.328.656,5.134,5.134,0,0,0-.211.984,5.331,5.331,0,0,0-.047.961c0.015,0.266.023,0.462,0.023,0.586v24.563a1.133,1.133,0,0,0-.047.351,3.4,3.4,0,0,0,.071.586,4.951,4.951,0,0,0,.164.657,3.462,3.462,0,0,0,.187.468l0.188,0.188a3.3,3.3,0,0,0,.609.164,4.591,4.591,0,0,0,.844.07c0.312,0,.578-0.007.8-0.023s0.406-.024.562-0.024v1.313h-10.5v-1.313H500.2c0.156,0,.352.008,0.586,0.024s0.5,0.031.8,0.047a3.955,3.955,0,0,0,.867-0.047,4.275,4.275,0,0,0,.8-0.211l0.187-.188,0.375-.375V935.187L503.625,935l-0.75-.75h-0.188l-0.75-.188H501.75l-0.281.094q-0.141.047-.375,0.141c-0.157.063-.305,0.125-0.446,0.187a2.394,2.394,0,0,1-.4.141l-0.188.187a15.8,15.8,0,0,0-1.195,1.242,10.225,10.225,0,0,0-1.195,1.735,14.9,14.9,0,0,0-.867,1.781q-0.306.774-.493,1.242H495v-0.187q0.047-.7.141-1.735t0.257-2.273q0.163-1.242.235-2.156c0.047-.61.085-1.117,0.117-1.524h19.312v0.188q0,0.609.047,1.547t0.188,2.25q0.141,1.313.211,2.3c0.047,0.657.085,1.188,0.117,1.594h-0.188A1.023,1.023,0,0,1,514.57,940.7Zm-30.258-7.875q1.359,0.4,2.3.68a1.417,1.417,0,0,0,.516,0,3.389,3.389,0,0,0,.82-0.258,3.189,3.189,0,0,0,.844-0.516c0.234-.2.429-0.382,0.586-0.539l0.187,0.188q0.141,0.75.469,1.945t0.82,2.789q0.494,1.595.821,2.695t0.515,1.758L492,941.75a3.263,3.263,0,0,1-.375.094,1.287,1.287,0,0,1-.539-0.024,0.573,0.573,0,0,1-.422-0.328,1.289,1.289,0,0,1-.117-0.539,14.234,14.234,0,0,0-1.383-2.438,13.277,13.277,0,0,0-2.906-2.976,8.551,8.551,0,0,0-3.446-1.781,8.392,8.392,0,0,0-1.033-.126l-3.541,13.1a20.967,20.967,0,0,1,1.9-1.024s1.866,1.109,2.976,1.687,2.086,1.1,2.93,1.547,1.577,0.867,2.2,1.242l0.187,0.187a11.692,11.692,0,0,1,1.946,1.618,7.875,7.875,0,0,1,1.711,2.719,6.345,6.345,0,0,1,.515,2.976,9.579,9.579,0,0,1-.422,2.11,8.811,8.811,0,0,1-6.023,5.648,10.173,10.173,0,0,1-4.547.516,11.078,11.078,0,0,1-2.789-.727c-0.251-.125-0.516-0.25-0.8-0.375a2.971,2.971,0,0,0-.937-0.234,2.888,2.888,0,0,0-.914.046c-0.266.064-.493,0.11-0.68,0.141l-0.188.188a0.28,0.28,0,0,0-.14.07c-0.063.047-.149,0.109-0.258,0.188a2.356,2.356,0,0,0-.305.257l-0.234.235-0.188-.188c-0.063-.219-0.148-0.5-0.257-0.843-0.082-.256-0.187-0.575-0.3-0.926l-4.146,15.337-0.965-.261,12.222-45.219a4,4,0,0,0-.411.037c-0.739.158,0.363-.878,0.727-1.207l17.462-64.611,0.965,0.261L482.1,932.464A15.751,15.751,0,0,1,484.312,932.82Zm-9.445,27.211a22,22,0,0,0,4.266,3.68,7.215,7.215,0,0,0,8.508-.446,6.752,6.752,0,0,0,1.054-1.289,5.008,5.008,0,0,0,.727-1.945,6.742,6.742,0,0,0,.094-1.875c-0.064-.5-0.11-0.906-0.141-1.219l-0.188-.187a7.95,7.95,0,0,0-1.5-2.227,12.441,12.441,0,0,0-2.953-2.3q-1.875-1.1-3.234-1.734a13.27,13.27,0,0,1-2.016-1.1,11.508,11.508,0,0,1-1.723-.891l-3.372,12.477C474.65,960.439,474.867,960.031,474.867,960.031Z" transform="translate(-468.531 -867.875)"/>
</svg>
